<global>
amp_veltrack=0
ampeg_attack=0.01
ampeg_release=0.35

<group>
group_label=PP
seq_length=1
seq_position=1
xf_cccurve=gain
xfin_hicc1=42
xfin_locc1=0
xfout_hicc1=85
xfout_locc1=42

<region>
hikey=g6
hivel=127
lokey=f#6
loop_end=308523
loop_mode=loop_continuous
loop_start=76372
loop_xfade=23062
lovel=0
offset=14189
pitch_keycenter=g6
sample=Violins2_trill_min3rd_PP_G6.opus

<region>
hikey=g5
hivel=127
lokey=f#5
loop_end=308522
loop_mode=loop_continuous
loop_start=76372
loop_xfade=23062
lovel=0
offset=17841
pitch_keycenter=g5
sample=Violins2_trill_min3rd_PP_G5.opus

<region>
hikey=g4
hivel=127
lokey=f#4
loop_end=307692
loop_mode=loop_continuous
loop_start=76167
loop_xfade=23000
lovel=0
offset=16751
pitch_keycenter=g4
sample=Violins2_trill_min3rd_PP_G4.opus

<region>
hivel=127
key=g3
loop_end=301136
loop_mode=loop_continuous
loop_start=74544
loop_xfade=22510
lovel=0
offset=5260
sample=Violins2_trill_min3rd_PP_G3.opus

<region>
hikey=f6
hivel=127
lokey=e6
loop_end=308523
loop_mode=loop_continuous
loop_start=76372
loop_xfade=23062
lovel=0
offset=15507
pitch_keycenter=f6
sample=Violins2_trill_min3rd_PP_F6.opus

<region>
hikey=f5
hivel=127
lokey=e5
loop_end=308522
loop_mode=loop_continuous
loop_start=76372
loop_xfade=23062
lovel=0
offset=17554
pitch_keycenter=f5
sample=Violins2_trill_min3rd_PP_F5.opus

<region>
hikey=f4
hivel=127
lokey=e4
loop_end=308522
loop_mode=loop_continuous
loop_start=76372
loop_xfade=23062
lovel=0
offset=19893
pitch_keycenter=f4
sample=Violins2_trill_min3rd_PP_F4.opus

<region>
hikey=d#6
hivel=127
lokey=d6
loop_end=308523
loop_mode=loop_continuous
loop_start=76372
loop_xfade=23062
lovel=0
offset=14100
pitch_keycenter=d#6
sample=Violins2_trill_min3rd_PP_D#6.opus

<region>
hikey=d#5
hivel=127
lokey=d5
loop_end=308522
loop_mode=loop_continuous
loop_start=76372
loop_xfade=23062
lovel=0
offset=17617
pitch_keycenter=d#5
sample=Violins2_trill_min3rd_PP_D#5.opus

<region>
hikey=d#4
hivel=127
lokey=d4
loop_end=308522
loop_mode=loop_continuous
loop_start=76372
loop_xfade=23062
lovel=0
offset=14594
pitch_keycenter=d#4
sample=Violins2_trill_min3rd_PP_D#4.opus

<region>
hikey=c#6
hivel=127
lokey=c6
loop_end=308522
loop_mode=loop_continuous
loop_start=76372
loop_xfade=23062
lovel=0
offset=19882
pitch_keycenter=c#6
sample=Violins2_trill_min3rd_PP_C#6.opus

<region>
hikey=c#5
hivel=127
lokey=c5
loop_end=308522
loop_mode=loop_continuous
loop_start=76372
loop_xfade=23062
lovel=0
offset=14884
pitch_keycenter=c#5
sample=Violins2_trill_min3rd_PP_C#5.opus

<region>
hikey=c#4
hivel=127
lokey=c4
loop_end=303379
loop_mode=loop_continuous
loop_start=75099
loop_xfade=22677
lovel=0
offset=15718
pitch_keycenter=c#4
sample=Violins2_trill_min3rd_PP_C#4.opus

<region>
hikey=b5
hivel=127
lokey=a#5
loop_end=308522
loop_mode=loop_continuous
loop_start=76372
loop_xfade=23062
lovel=0
offset=16457
pitch_keycenter=b5
sample=Violins2_trill_min3rd_PP_B5.opus

<region>
hikey=b4
hivel=127
lokey=a#4
loop_end=308522
loop_mode=loop_continuous
loop_start=76372
loop_xfade=23062
lovel=0
offset=18338
pitch_keycenter=b4
sample=Violins2_trill_min3rd_PP_B4.opus

<region>
hikey=b3
hivel=127
lokey=a#3
loop_end=308523
loop_mode=loop_continuous
loop_start=76372
loop_xfade=23062
lovel=0
offset=15617
pitch_keycenter=b3
sample=Violins2_trill_min3rd_PP_B3.opus

<region>
hikey=a6
hivel=127
lokey=g#6
loop_end=351399
loop_mode=loop_continuous
loop_start=86986
loop_xfade=26267
lovel=0
offset=14551
pitch_keycenter=A6
sample=Violins2_trill_min3rd_PP_A6.opus

<region>
hikey=a5
hivel=127
lokey=g#5
loop_end=308522
loop_mode=loop_continuous
loop_start=76372
loop_xfade=23062
lovel=0
offset=14334
pitch_keycenter=a5
sample=Violins2_trill_min3rd_PP_A5.opus

<region>
hikey=a4
hivel=127
lokey=g#4
loop_end=308522
loop_mode=loop_continuous
loop_start=76372
loop_xfade=23062
lovel=0
offset=16893
pitch_keycenter=a4
sample=Violins2_trill_min3rd_PP_A4.opus

<region>
hikey=a3
hivel=127
lokey=g#3
loop_end=308523
loop_mode=loop_continuous
loop_start=76372
loop_xfade=23062
lovel=0
offset=19723
pitch_keycenter=a3
sample=Violins2_trill_min3rd_PP_A3.opus

<group>
group_label=MF
seq_length=1
seq_position=1
xf_cccurve=gain
xfin_hicc1=85
xfin_locc1=42
xfout_hicc1=127
xfout_locc1=85

<region>
hikey=g6
hivel=127
lokey=f#6
loop_end=264231
loop_mode=loop_continuous
loop_start=65408
loop_xfade=19751
lovel=0
offset=4815
pitch_keycenter=g6
sample=Violins2_trill_min3rd_MF_G6.opus

<region>
hikey=g5
hivel=127
lokey=f#5
loop_end=275758
loop_mode=loop_continuous
loop_start=68261
loop_xfade=20613
lovel=0
offset=7218
pitch_keycenter=g5
sample=Violins2_trill_min3rd_MF_G5.opus

<region>
hikey=g4
hivel=127
lokey=f#4
loop_end=260787
loop_mode=loop_continuous
loop_start=64555
loop_xfade=19494
lovel=0
offset=1205
pitch_keycenter=g4
sample=Violins2_trill_min3rd_MF_G4.opus

<region>
hivel=127
key=g3
loop_end=271981
loop_mode=loop_continuous
loop_start=67327
loop_xfade=20330
lovel=0
offset=960
sample=Violins2_trill_min3rd_MF_G3.opus

<region>
hikey=f6
hivel=127
lokey=e6
loop_end=293589
loop_mode=loop_continuous
loop_start=72676
loop_xfade=21946
lovel=0
offset=5698
pitch_keycenter=f6
sample=Violins2_trill_min3rd_MF_F6.opus

<region>
hikey=f5
hivel=127
lokey=e5
loop_end=288467
loop_mode=loop_continuous
loop_start=71408
loop_xfade=21563
lovel=0
offset=16135
pitch_keycenter=f5
sample=Violins2_trill_min3rd_MF_F5.opus

<region>
hikey=f4
hivel=127
lokey=e4
loop_end=267948
loop_mode=loop_continuous
loop_start=66328
loop_xfade=20029
lovel=0
offset=215
pitch_keycenter=f4
sample=Violins2_trill_min3rd_MF_F4.opus

<region>
hikey=d#6
hivel=127
lokey=d6
loop_end=297381
loop_mode=loop_continuous
loop_start=73614
loop_xfade=22229
lovel=0
offset=3734
pitch_keycenter=d#6
sample=Violins2_trill_min3rd_MF_D#6.opus

<region>
hikey=d#5
hivel=127
lokey=d5
loop_end=269679
loop_mode=loop_continuous
loop_start=66757
loop_xfade=20158
lovel=0
offset=2313
pitch_keycenter=d#5
sample=Violins2_trill_min3rd_MF_D#5.opus

<region>
hikey=d#4
hivel=127
lokey=d4
loop_end=263994
loop_mode=loop_continuous
loop_start=65349
loop_xfade=19733
lovel=0
offset=723
pitch_keycenter=d#4
sample=Violins2_trill_min3rd_MF_D#4.opus

<region>
hikey=c#6
hivel=127
lokey=c6
loop_end=274130
loop_mode=loop_continuous
loop_start=67859
loop_xfade=20491
lovel=0
pitch_keycenter=c#6
sample=Violins2_trill_min3rd_MF_C#6.opus

<region>
hikey=c#5
hivel=127
lokey=c5
loop_end=275166
loop_mode=loop_continuous
loop_start=68115
loop_xfade=20569
lovel=0
offset=17119
pitch_keycenter=c#5
sample=Violins2_trill_min3rd_MF_C#5.opus

<region>
hikey=c#4
hivel=127
lokey=c4
loop_end=268598
loop_mode=loop_continuous
loop_start=66489
loop_xfade=20078
lovel=0
offset=1431
pitch_keycenter=c#4
sample=Violins2_trill_min3rd_MF_C#4.opus

<region>
hikey=b5
hivel=127
lokey=a#5
loop_end=289455
loop_mode=loop_continuous
loop_start=71652
loop_xfade=21637
lovel=0
offset=15996
pitch_keycenter=b5
sample=Violins2_trill_min3rd_MF_B5.opus

<region>
hikey=b4
hivel=127
lokey=a#4
loop_end=274837
loop_mode=loop_continuous
loop_start=68033
loop_xfade=20544
lovel=0
offset=1739
pitch_keycenter=b4
sample=Violins2_trill_min3rd_MF_B4.opus

<region>
hikey=b3
hivel=127
lokey=a#3
loop_end=266121
loop_mode=loop_continuous
loop_start=65876
loop_xfade=19892
lovel=0
offset=2017
pitch_keycenter=b3
sample=Violins2_trill_min3rd_MF_B3.opus

<region>
end=340100
hikey=a6
hivel=127
lokey=g#6
loop_end=624366
loop_mode=loop_continuous
loop_start=154557
loop_xfade=46672
lovel=0
offset=19264
pitch_keycenter=A6
sample=Violins2_trill_min3rd_MF_A6.opus

<region>
hikey=a5
hivel=127
lokey=g#5
loop_end=298516
loop_mode=loop_continuous
loop_start=73895
loop_xfade=22314
lovel=0
offset=6062
pitch_keycenter=a5
sample=Violins2_trill_min3rd_MF_A5.opus

<region>
hikey=a4
hivel=127
lokey=g#4
loop_end=267669
loop_mode=loop_continuous
loop_start=66259
loop_xfade=20008
lovel=0
offset=973
pitch_keycenter=a4
sample=Violins2_trill_min3rd_MF_A4.opus

<region>
hikey=a3
hivel=127
lokey=g#3
loop_end=263091
loop_mode=loop_continuous
loop_start=65126
loop_xfade=19666
lovel=0
offset=1287
pitch_keycenter=a3
sample=Violins2_trill_min3rd_MF_A3.opus

<group>
group_label=FF
seq_length=1
seq_position=1
xf_cccurve=gain
xfin_hicc1=127
xfin_locc1=85
xfout_hicc1=127
xfout_locc1=127

<region>
hikey=g6
hivel=127
lokey=f#6
loop_end=260433
loop_mode=loop_continuous
loop_start=64468
loop_xfade=19467
lovel=0
offset=2591
pitch_keycenter=g6
sample=Violins2_trill_min3rd_FF_G6.opus

<region>
hikey=g5
hivel=127
lokey=f#5
loop_end=263151
loop_mode=loop_continuous
loop_start=65141
loop_xfade=19670
lovel=0
offset=1907
pitch_keycenter=g5
sample=Violins2_trill_min3rd_FF_G5.opus

<region>
hikey=g4
hivel=127
lokey=f#4
loop_end=261891
loop_mode=loop_continuous
loop_start=64829
loop_xfade=19576
lovel=0
offset=816
pitch_keycenter=g4
sample=Violins2_trill_min3rd_FF_G4.opus

<region>
hivel=127
key=g3
loop_end=265585
loop_mode=loop_continuous
loop_start=65743
loop_xfade=19852
lovel=0
offset=1211
sample=Violins2_trill_min3rd_FF_G3.opus

<region>
hikey=f6
hivel=127
lokey=e6
loop_end=262146
loop_mode=loop_continuous
loop_start=64892
loop_xfade=19595
lovel=0
offset=401
pitch_keycenter=f6
sample=Violins2_trill_min3rd_FF_F6.opus

<region>
hikey=f5
hivel=127
lokey=e5
loop_end=262173
loop_mode=loop_continuous
loop_start=64899
loop_xfade=19597
lovel=0
offset=1040
pitch_keycenter=f5
sample=Violins2_trill_min3rd_FF_F5.opus

<region>
hikey=f4
hivel=127
lokey=e4
loop_end=265772
loop_mode=loop_continuous
loop_start=65790
loop_xfade=19866
lovel=0
offset=1558
pitch_keycenter=f4
sample=Violins2_trill_min3rd_FF_F4.opus

<region>
hikey=d#6
hivel=127
lokey=d6
loop_end=258055
loop_mode=loop_continuous
loop_start=63879
loop_xfade=19290
lovel=0
offset=852
pitch_keycenter=d#6
sample=Violins2_trill_min3rd_FF_D#6.opus

<region>
hikey=d#5
hivel=127
lokey=d5
loop_end=260462
loop_mode=loop_continuous
loop_start=64475
loop_xfade=19469
lovel=0
offset=2180
pitch_keycenter=d#5
sample=Violins2_trill_min3rd_FF_D#5.opus

<region>
hikey=d#4
hivel=127
lokey=d4
loop_end=278685
loop_mode=loop_continuous
loop_start=68986
loop_xfade=20832
lovel=0
offset=634
pitch_keycenter=d#4
sample=Violins2_trill_min3rd_FF_D#4.opus

<region>
hikey=c#6
hivel=127
lokey=c6
loop_end=256269
loop_mode=loop_continuous
loop_start=63437
loop_xfade=19156
lovel=0
offset=241
pitch_keycenter=c#6
sample=Violins2_trill_min3rd_FF_C#6.opus

<region>
hikey=c#5
hivel=127
lokey=c5
loop_end=291875
loop_mode=loop_continuous
loop_start=72251
loop_xfade=21818
lovel=0
offset=468
pitch_keycenter=c#5
sample=Violins2_trill_min3rd_FF_C#5.opus

<region>
hikey=c#4
hivel=127
lokey=c4
loop_end=264301
loop_mode=loop_continuous
loop_start=65425
loop_xfade=19756
lovel=0
offset=725
pitch_keycenter=c#4
sample=Violins2_trill_min3rd_FF_C#4.opus

<region>
hikey=b5
hivel=127
lokey=a#5
loop_end=264145
loop_mode=loop_continuous
loop_start=65387
loop_xfade=19745
lovel=0
offset=816
pitch_keycenter=b5
sample=Violins2_trill_min3rd_FF_B5.opus

<region>
hikey=b4
hivel=127
lokey=a#4
loop_end=271589
loop_mode=loop_continuous
loop_start=67230
loop_xfade=20301
lovel=0
offset=419
pitch_keycenter=b4
sample=Violins2_trill_min3rd_FF_B4.opus

<region>
hikey=b3
hivel=127
lokey=a#3
loop_end=264653
loop_mode=loop_continuous
loop_start=65513
loop_xfade=19783
lovel=0
offset=1532
pitch_keycenter=b3
sample=Violins2_trill_min3rd_FF_B3.opus

<region>
hikey=a6
hivel=127
lokey=g#6
loop_end=266682
loop_mode=loop_continuous
loop_start=66015
loop_xfade=19934
lovel=0
offset=2976
pitch_keycenter=A6
sample=Violins2_trill_min3rd_FF_A6.opus

<region>
hikey=a5
hivel=127
lokey=g#5
loop_end=263241
loop_mode=loop_continuous
loop_start=65163
loop_xfade=19677
lovel=0
offset=1643
pitch_keycenter=a5
sample=Violins2_trill_min3rd_FF_A5.opus

<region>
hikey=a4
hivel=127
lokey=g#4
loop_end=259554
loop_mode=loop_continuous
loop_start=64250
loop_xfade=19402
lovel=0
offset=800
pitch_keycenter=a4
sample=Violins2_trill_min3rd_FF_A4.opus

<region>
hikey=a3
hivel=127
lokey=g#3
loop_end=263983
loop_mode=loop_continuous
loop_start=65347
loop_xfade=19733
lovel=0
offset=1357
pitch_keycenter=a3
sample=Violins2_trill_min3rd_FF_A3.opus

